<?xml version="1.0" encoding="UTF-8" standalone="no"?>
<!DOCTYPE svg PUBLIC "-//W3C//DTD SVG 1.1//EN"
 "http://www.w3.org/Graphics/SVG/1.1/DTD/svg11.dtd">
<!-- Generated by graphviz version 9.0.0 (0)
 -->
<!-- Title: G Pages: 1 -->
<svg width="766pt" height="233pt"
 viewBox="0.00 0.00 766.00 232.70" xmlns="http://www.w3.org/2000/svg" xmlns:xlink="http://www.w3.org/1999/xlink">
<g id="graph0" class="graph" transform="scale(1 1) rotate(0) translate(4 228.7)">
<title>G</title>
<polygon fill="white" stroke="none" points="-4,4 -4,-228.7 762,-228.7 762,4 -4,4"/>
<!-- neuroticism -->
<g id="node1" class="node">
<title>neuroticism</title>
<ellipse fill="#cae6df" stroke="black" cx="67" cy="-162.6" rx="54.93" ry="54.93"/>
<text text-anchor="middle" x="67" y="-157.55" font-family="Times,serif" font-size="14.00">neuroticism</text>
</g>
<!-- TIPI4 -->
<g id="node10" class="node">
<title>TIPI4</title>
<polygon fill="none" stroke="black" points="54,-36 0,-36 0,0 54,0 54,-36"/>
<text text-anchor="middle" x="27" y="-12.95" font-family="Times,serif" font-size="14.00">TIPI4</text>
</g>
<!-- neuroticism&#45;&gt;TIPI4 -->
<g id="edge7" class="edge">
<title>neuroticism&#45;&gt;TIPI4</title>
<path fill="none" stroke="black" d="M52.33,-109.31C46.43,-88.28 39.87,-64.88 34.9,-47.17"/>
<polygon fill="black" stroke="black" points="38.3,-46.31 32.23,-37.63 31.56,-48.2 38.3,-46.31"/>
<text text-anchor="middle" x="58.5" y="-63.98" font-family="Times,serif" font-size="12.00">0.578</text>
</g>
<!-- TIPI9 -->
<g id="node15" class="node">
<title>TIPI9</title>
<polygon fill="none" stroke="black" points="126,-36 72,-36 72,0 126,0 126,-36"/>
<text text-anchor="middle" x="99" y="-12.95" font-family="Times,serif" font-size="14.00">TIPI9</text>
</g>
<!-- neuroticism&#45;&gt;TIPI9 -->
<g id="edge8" class="edge">
<title>neuroticism&#45;&gt;TIPI9</title>
<path fill="none" stroke="black" d="M78.92,-108.5C83.56,-87.78 88.71,-64.87 92.62,-47.41"/>
<polygon fill="black" stroke="black" points="96.01,-48.29 94.79,-37.77 89.18,-46.76 96.01,-48.29"/>
<text text-anchor="middle" x="116.5" y="-71.1" font-family="Times,serif" font-size="12.00">&#45;0.972</text>
<text text-anchor="middle" x="116.5" y="-56.85" font-family="Times,serif" font-size="12.00">p&#45;val: 0.00</text>
</g>
<!-- conscientious -->
<g id="node2" class="node">
<title>conscientious</title>
<ellipse fill="#cae6df" stroke="black" cx="207" cy="-162.6" rx="61.08" ry="61.08"/>
<text text-anchor="middle" x="207" y="-157.55" font-family="Times,serif" font-size="14.00">conscientious</text>
</g>
<!-- TIPI3 -->
<g id="node9" class="node">
<title>TIPI3</title>
<polygon fill="none" stroke="black" points="232,-36 178,-36 178,0 232,0 232,-36"/>
<text text-anchor="middle" x="205" y="-12.95" font-family="Times,serif" font-size="14.00">TIPI3</text>
</g>
<!-- conscientious&#45;&gt;TIPI3 -->
<g id="edge5" class="edge">
<title>conscientious&#45;&gt;TIPI3</title>
<path fill="none" stroke="black" d="M206.15,-101.12C205.89,-82.56 205.62,-62.99 205.4,-47.61"/>
<polygon fill="black" stroke="black" points="208.9,-47.74 205.26,-37.79 201.9,-47.84 208.9,-47.74"/>
<text text-anchor="middle" x="219.5" y="-63.98" font-family="Times,serif" font-size="12.00">0.928</text>
</g>
<!-- TIPI8 -->
<g id="node14" class="node">
<title>TIPI8</title>
<polygon fill="none" stroke="black" points="304,-36 250,-36 250,0 304,0 304,-36"/>
<text text-anchor="middle" x="277" y="-12.95" font-family="Times,serif" font-size="14.00">TIPI8</text>
</g>
<!-- conscientious&#45;&gt;TIPI8 -->
<g id="edge6" class="edge">
<title>conscientious&#45;&gt;TIPI8</title>
<path fill="none" stroke="black" d="M233.66,-107.28C243.9,-86.42 255.15,-63.51 263.62,-46.25"/>
<polygon fill="black" stroke="black" points="266.57,-48.19 267.84,-37.67 260.29,-45.1 266.57,-48.19"/>
<text text-anchor="middle" x="284.5" y="-71.1" font-family="Times,serif" font-size="12.00">&#45;0.451</text>
<text text-anchor="middle" x="284.5" y="-56.85" font-family="Times,serif" font-size="12.00">p&#45;val: 0.00</text>
</g>
<!-- agreeableness -->
<g id="node3" class="node">
<title>agreeableness</title>
<ellipse fill="#cae6df" stroke="black" cx="362" cy="-162.6" rx="62.1" ry="62.1"/>
<text text-anchor="middle" x="362" y="-157.55" font-family="Times,serif" font-size="14.00">agreeableness</text>
</g>
<!-- TIPI2 -->
<g id="node8" class="node">
<title>TIPI2</title>
<polygon fill="none" stroke="black" points="378,-36 324,-36 324,0 378,0 378,-36"/>
<text text-anchor="middle" x="351" y="-12.95" font-family="Times,serif" font-size="14.00">TIPI2</text>
</g>
<!-- agreeableness&#45;&gt;TIPI2 -->
<g id="edge3" class="edge">
<title>agreeableness&#45;&gt;TIPI2</title>
<path fill="none" stroke="black" d="M357.27,-100.3C355.86,-81.95 354.37,-62.7 353.2,-47.55"/>
<polygon fill="black" stroke="black" points="356.71,-47.57 352.46,-37.87 349.74,-48.11 356.71,-47.57"/>
<text text-anchor="middle" x="369.5" y="-63.98" font-family="Times,serif" font-size="12.00">0.274</text>
</g>
<!-- TIPI7 -->
<g id="node13" class="node">
<title>TIPI7</title>
<polygon fill="none" stroke="black" points="450,-36 396,-36 396,0 450,0 450,-36"/>
<text text-anchor="middle" x="423" y="-12.95" font-family="Times,serif" font-size="14.00">TIPI7</text>
</g>
<!-- agreeableness&#45;&gt;TIPI7 -->
<g id="edge4" class="edge">
<title>agreeableness&#45;&gt;TIPI7</title>
<path fill="none" stroke="black" d="M386.11,-105.24C394.74,-85.06 404.09,-63.21 411.21,-46.55"/>
<polygon fill="black" stroke="black" points="414.24,-48.39 414.95,-37.81 407.8,-45.63 414.24,-48.39"/>
<text text-anchor="middle" x="432.5" y="-71.1" font-family="Times,serif" font-size="12.00">&#45;1.000</text>
<text text-anchor="middle" x="432.5" y="-56.85" font-family="Times,serif" font-size="12.00">p&#45;val: 0.00</text>
</g>
<!-- extraversion -->
<g id="node4" class="node">
<title>extraversion</title>
<ellipse fill="#cae6df" stroke="black" cx="554" cy="-162.6" rx="56.47" ry="56.47"/>
<text text-anchor="middle" x="554" y="-157.55" font-family="Times,serif" font-size="14.00">extraversion</text>
</g>
<!-- TIPI1 -->
<g id="node6" class="node">
<title>TIPI1</title>
<polygon fill="none" stroke="black" points="524,-36 470,-36 470,0 524,0 524,-36"/>
<text text-anchor="middle" x="497" y="-12.95" font-family="Times,serif" font-size="14.00">TIPI1</text>
</g>
<!-- extraversion&#45;&gt;TIPI1 -->
<g id="edge1" class="edge">
<title>extraversion&#45;&gt;TIPI1</title>
<path fill="none" stroke="black" d="M533.26,-109.71C524.76,-88.45 515.26,-64.69 508.12,-46.82"/>
<polygon fill="black" stroke="black" points="511.43,-45.67 504.47,-37.68 504.93,-48.26 511.43,-45.67"/>
<text text-anchor="middle" x="536.5" y="-63.98" font-family="Times,serif" font-size="12.00">1.000</text>
</g>
<!-- TIPI6 -->
<g id="node12" class="node">
<title>TIPI6</title>
<polygon fill="none" stroke="black" points="596,-36 542,-36 542,0 596,0 596,-36"/>
<text text-anchor="middle" x="569" y="-12.95" font-family="Times,serif" font-size="14.00">TIPI6</text>
</g>
<!-- extraversion&#45;&gt;TIPI6 -->
<g id="edge2" class="edge">
<title>extraversion&#45;&gt;TIPI6</title>
<path fill="none" stroke="black" d="M559.84,-106.06C561.95,-86.05 564.24,-64.29 566,-47.54"/>
<polygon fill="black" stroke="black" points="569.45,-48.13 567.02,-37.82 562.49,-47.4 569.45,-48.13"/>
<text text-anchor="middle" x="590.5" y="-71.1" font-family="Times,serif" font-size="12.00">&#45;0.565</text>
<text text-anchor="middle" x="590.5" y="-56.85" font-family="Times,serif" font-size="12.00">p&#45;val: 0.00</text>
</g>
<!-- openness -->
<g id="node5" class="node">
<title>openness</title>
<ellipse fill="#cae6df" stroke="black" cx="686" cy="-162.6" rx="44.7" ry="44.7"/>
<text text-anchor="middle" x="686" y="-157.55" font-family="Times,serif" font-size="14.00">openness</text>
</g>
<!-- TIPI10 -->
<g id="node7" class="node">
<title>TIPI10</title>
<polygon fill="none" stroke="black" points="684.12,-36 629.88,-36 629.88,0 684.12,0 684.12,-36"/>
<text text-anchor="middle" x="657" y="-12.95" font-family="Times,serif" font-size="14.00">TIPI10</text>
</g>
<!-- openness&#45;&gt;TIPI10 -->
<g id="edge10" class="edge">
<title>openness&#45;&gt;TIPI10</title>
<path fill="none" stroke="black" d="M668.88,-121.23C664.47,-109.01 660.32,-95.4 658,-82.5 655.99,-71.3 655.43,-58.82 655.49,-47.9"/>
<polygon fill="black" stroke="black" points="658.99,-47.99 655.73,-37.91 651.99,-47.82 658.99,-47.99"/>
<text text-anchor="middle" x="683.5" y="-71.1" font-family="Times,serif" font-size="12.00">&#45;0.213</text>
<text text-anchor="middle" x="683.5" y="-56.85" font-family="Times,serif" font-size="12.00">p&#45;val: 0.00</text>
</g>
<!-- TIPI5 -->
<g id="node11" class="node">
<title>TIPI5</title>
<polygon fill="none" stroke="black" points="758,-36 704,-36 704,0 758,0 758,-36"/>
<text text-anchor="middle" x="731" y="-12.95" font-family="Times,serif" font-size="14.00">TIPI5</text>
</g>
<!-- openness&#45;&gt;TIPI5 -->
<g id="edge9" class="edge">
<title>openness&#45;&gt;TIPI5</title>
<path fill="none" stroke="black" d="M699.26,-119.59C706.62,-96.27 715.57,-67.88 722.09,-47.22"/>
<polygon fill="black" stroke="black" points="725.4,-48.37 725.07,-37.78 718.73,-46.26 725.4,-48.37"/>
<text text-anchor="middle" x="731.5" y="-63.98" font-family="Times,serif" font-size="12.00">1.000</text>
</g>
</g>
</svg>