<?xml version="1.0" encoding="UTF-8" standalone="no"?>
<!DOCTYPE svg PUBLIC "-//W3C//DTD SVG 1.1//EN"
 "http://www.w3.org/Graphics/SVG/1.1/DTD/svg11.dtd">
<!-- Generated by graphviz version 9.0.0 (0)
 -->
<!-- Title: G Pages: 1 -->
<svg width="779pt" height="233pt"
 viewBox="0.00 0.00 779.00 232.70" xmlns="http://www.w3.org/2000/svg" xmlns:xlink="http://www.w3.org/1999/xlink">
<g id="graph0" class="graph" transform="scale(1 1) rotate(0) translate(4 228.7)">
<title>G</title>
<polygon fill="white" stroke="none" points="-4,4 -4,-228.7 775,-228.7 775,4 -4,4"/>
<!-- agreeableness -->
<g id="node1" class="node">
<title>agreeableness</title>
<ellipse fill="#cae6df" stroke="black" cx="70" cy="-162.6" rx="62.1" ry="62.1"/>
<text text-anchor="middle" x="70" y="-157.55" font-family="Times,serif" font-size="14.00">agreeableness</text>
</g>
<!-- TIPI2 -->
<g id="node8" class="node">
<title>TIPI2</title>
<polygon fill="none" stroke="black" points="54,-36 0,-36 0,0 54,0 54,-36"/>
<text text-anchor="middle" x="27" y="-12.95" font-family="Times,serif" font-size="14.00">TIPI2</text>
</g>
<!-- agreeableness&#45;&gt;TIPI2 -->
<g id="edge3" class="edge">
<title>agreeableness&#45;&gt;TIPI2</title>
<path fill="none" stroke="black" d="M52.26,-102.78C46.45,-83.51 40.27,-63 35.47,-47.09"/>
<polygon fill="black" stroke="black" points="38.92,-46.42 32.69,-37.85 32.22,-48.44 38.92,-46.42"/>
<text text-anchor="middle" x="59.5" y="-63.98" font-family="Times,serif" font-size="12.00">0.274</text>
</g>
<!-- TIPI7 -->
<g id="node13" class="node">
<title>TIPI7</title>
<polygon fill="none" stroke="black" points="126,-36 72,-36 72,0 126,0 126,-36"/>
<text text-anchor="middle" x="99" y="-12.95" font-family="Times,serif" font-size="14.00">TIPI7</text>
</g>
<!-- agreeableness&#45;&gt;TIPI7 -->
<g id="edge4" class="edge">
<title>agreeableness&#45;&gt;TIPI7</title>
<path fill="none" stroke="black" d="M82.21,-101.54C86.04,-82.73 90.08,-62.86 93.24,-47.33"/>
<polygon fill="black" stroke="black" points="96.6,-48.37 95.16,-37.87 89.74,-46.97 96.6,-48.37"/>
<text text-anchor="middle" x="117.5" y="-71.1" font-family="Times,serif" font-size="12.00">&#45;1.000</text>
<text text-anchor="middle" x="117.5" y="-56.85" font-family="Times,serif" font-size="12.00">p&#45;val: 0.00</text>
</g>
<!-- conscientious -->
<g id="node2" class="node">
<title>conscientious</title>
<ellipse fill="#cae6df" stroke="black" cx="213" cy="-162.6" rx="61.08" ry="61.08"/>
<text text-anchor="middle" x="213" y="-157.55" font-family="Times,serif" font-size="14.00">conscientious</text>
</g>
<!-- TIPI3 -->
<g id="node9" class="node">
<title>TIPI3</title>
<polygon fill="none" stroke="black" points="228,-36 174,-36 174,0 228,0 228,-36"/>
<text text-anchor="middle" x="201" y="-12.95" font-family="Times,serif" font-size="14.00">TIPI3</text>
</g>
<!-- conscientious&#45;&gt;TIPI3 -->
<g id="edge5" class="edge">
<title>conscientious&#45;&gt;TIPI3</title>
<path fill="none" stroke="black" d="M207.95,-101.54C206.38,-82.92 204.72,-63.25 203.42,-47.79"/>
<polygon fill="black" stroke="black" points="206.92,-47.57 202.59,-37.89 199.94,-48.15 206.92,-47.57"/>
<text text-anchor="middle" x="220.5" y="-63.98" font-family="Times,serif" font-size="12.00">0.928</text>
</g>
<!-- TIPI8 -->
<g id="node14" class="node">
<title>TIPI8</title>
<polygon fill="none" stroke="black" points="300,-36 246,-36 246,0 300,0 300,-36"/>
<text text-anchor="middle" x="273" y="-12.95" font-family="Times,serif" font-size="14.00">TIPI8</text>
</g>
<!-- conscientious&#45;&gt;TIPI8 -->
<g id="edge6" class="edge">
<title>conscientious&#45;&gt;TIPI8</title>
<path fill="none" stroke="black" d="M236.37,-106.06C244.95,-85.66 254.3,-63.45 261.4,-46.57"/>
<polygon fill="black" stroke="black" points="264.48,-48.28 265.13,-37.71 258.02,-45.57 264.48,-48.28"/>
<text text-anchor="middle" x="282.5" y="-71.1" font-family="Times,serif" font-size="12.00">&#45;0.451</text>
<text text-anchor="middle" x="282.5" y="-56.85" font-family="Times,serif" font-size="12.00">p&#45;val: 0.00</text>
</g>
<!-- extraversion -->
<g id="node3" class="node">
<title>extraversion</title>
<ellipse fill="#cae6df" stroke="black" cx="411" cy="-162.6" rx="56.47" ry="56.47"/>
<text text-anchor="middle" x="411" y="-157.55" font-family="Times,serif" font-size="14.00">extraversion</text>
</g>
<!-- TIPI1 -->
<g id="node6" class="node">
<title>TIPI1</title>
<polygon fill="none" stroke="black" points="374,-36 320,-36 320,0 374,0 374,-36"/>
<text text-anchor="middle" x="347" y="-12.95" font-family="Times,serif" font-size="14.00">TIPI1</text>
</g>
<!-- extraversion&#45;&gt;TIPI1 -->
<g id="edge1" class="edge">
<title>extraversion&#45;&gt;TIPI1</title>
<path fill="none" stroke="black" d="M388.08,-110.52C378.45,-89.08 367.63,-64.98 359.52,-46.89"/>
<polygon fill="black" stroke="black" points="362.75,-45.55 355.47,-37.86 356.37,-48.42 362.75,-45.55"/>
<text text-anchor="middle" x="389.5" y="-63.98" font-family="Times,serif" font-size="12.00">1.000</text>
</g>
<!-- TIPI6 -->
<g id="node12" class="node">
<title>TIPI6</title>
<polygon fill="none" stroke="black" points="446,-36 392,-36 392,0 446,0 446,-36"/>
<text text-anchor="middle" x="419" y="-12.95" font-family="Times,serif" font-size="14.00">TIPI6</text>
</g>
<!-- extraversion&#45;&gt;TIPI6 -->
<g id="edge2" class="edge">
<title>extraversion&#45;&gt;TIPI6</title>
<path fill="none" stroke="black" d="M414.12,-106.06C415.24,-86.05 416.46,-64.29 417.4,-47.54"/>
<polygon fill="black" stroke="black" points="420.88,-48.01 417.94,-37.83 413.89,-47.61 420.88,-48.01"/>
<text text-anchor="middle" x="442.5" y="-71.1" font-family="Times,serif" font-size="12.00">&#45;0.565</text>
<text text-anchor="middle" x="442.5" y="-56.85" font-family="Times,serif" font-size="12.00">p&#45;val: 0.00</text>
</g>
<!-- openness -->
<g id="node4" class="node">
<title>openness</title>
<ellipse fill="#cae6df" stroke="black" cx="557" cy="-162.6" rx="44.7" ry="44.7"/>
<text text-anchor="middle" x="557" y="-157.55" font-family="Times,serif" font-size="14.00">openness</text>
</g>
<!-- TIPI10 -->
<g id="node7" class="node">
<title>TIPI10</title>
<polygon fill="none" stroke="black" points="534.12,-36 479.88,-36 479.88,0 534.12,0 534.12,-36"/>
<text text-anchor="middle" x="507" y="-12.95" font-family="Times,serif" font-size="14.00">TIPI10</text>
</g>
<!-- openness&#45;&gt;TIPI10 -->
<g id="edge10" class="edge">
<title>openness&#45;&gt;TIPI10</title>
<path fill="none" stroke="black" d="M534.06,-123.7C527.28,-111 520.48,-96.5 516,-82.5 512.44,-71.36 510.28,-58.68 508.98,-47.59"/>
<polygon fill="black" stroke="black" points="512.49,-47.45 508.03,-37.84 505.52,-48.13 512.49,-47.45"/>
<text text-anchor="middle" x="541.5" y="-71.1" font-family="Times,serif" font-size="12.00">&#45;0.213</text>
<text text-anchor="middle" x="541.5" y="-56.85" font-family="Times,serif" font-size="12.00">p&#45;val: 0.00</text>
</g>
<!-- TIPI5 -->
<g id="node11" class="node">
<title>TIPI5</title>
<polygon fill="none" stroke="black" points="608,-36 554,-36 554,0 608,0 608,-36"/>
<text text-anchor="middle" x="581" y="-12.95" font-family="Times,serif" font-size="14.00">TIPI5</text>
</g>
<!-- openness&#45;&gt;TIPI5 -->
<g id="edge9" class="edge">
<title>openness&#45;&gt;TIPI5</title>
<path fill="none" stroke="black" d="M564.33,-118.04C568.18,-95.14 572.8,-67.72 576.2,-47.54"/>
<polygon fill="black" stroke="black" points="579.63,-48.24 577.84,-37.8 572.72,-47.08 579.63,-48.24"/>
<text text-anchor="middle" x="588.5" y="-63.98" font-family="Times,serif" font-size="12.00">1.000</text>
</g>
<!-- neuroticism -->
<g id="node5" class="node">
<title>neuroticism</title>
<ellipse fill="#cae6df" stroke="black" cx="689" cy="-162.6" rx="54.93" ry="54.93"/>
<text text-anchor="middle" x="689" y="-157.55" font-family="Times,serif" font-size="14.00">neuroticism</text>
</g>
<!-- TIPI4 -->
<g id="node10" class="node">
<title>TIPI4</title>
<polygon fill="none" stroke="black" points="687,-36 633,-36 633,0 687,0 687,-36"/>
<text text-anchor="middle" x="660" y="-12.95" font-family="Times,serif" font-size="14.00">TIPI4</text>
</g>
<!-- neuroticism&#45;&gt;TIPI4 -->
<g id="edge7" class="edge">
<title>neuroticism&#45;&gt;TIPI4</title>
<path fill="none" stroke="black" d="M678.2,-108.5C673.99,-87.78 669.33,-64.87 665.78,-47.41"/>
<polygon fill="black" stroke="black" points="669.24,-46.88 663.82,-37.78 662.38,-48.27 669.24,-46.88"/>
<text text-anchor="middle" x="686.5" y="-63.98" font-family="Times,serif" font-size="12.00">0.578</text>
</g>
<!-- TIPI9 -->
<g id="node15" class="node">
<title>TIPI9</title>
<polygon fill="none" stroke="black" points="759,-36 705,-36 705,0 759,0 759,-36"/>
<text text-anchor="middle" x="732" y="-12.95" font-family="Times,serif" font-size="14.00">TIPI9</text>
</g>
<!-- neuroticism&#45;&gt;TIPI9 -->
<g id="edge8" class="edge">
<title>neuroticism&#45;&gt;TIPI9</title>
<path fill="none" stroke="black" d="M704.65,-109.71C711.03,-88.55 718.16,-64.91 723.53,-47.07"/>
<polygon fill="black" stroke="black" points="726.82,-48.31 726.35,-37.72 720.12,-46.29 726.82,-48.31"/>
<text text-anchor="middle" x="745.5" y="-71.1" font-family="Times,serif" font-size="12.00">&#45;0.972</text>
<text text-anchor="middle" x="745.5" y="-56.85" font-family="Times,serif" font-size="12.00">p&#45;val: 0.00</text>
</g>
</g>
</svg>