<?xml version="1.0" encoding="UTF-8" standalone="no"?>
<!DOCTYPE svg PUBLIC "-//W3C//DTD SVG 1.1//EN"
 "http://www.w3.org/Graphics/SVG/1.1/DTD/svg11.dtd">
<!-- Generated by graphviz version 9.0.0 (0)
 -->
<!-- Title: G Pages: 1 -->
<svg width="725pt" height="233pt"
 viewBox="0.00 0.00 725.00 232.70" xmlns="http://www.w3.org/2000/svg" xmlns:xlink="http://www.w3.org/1999/xlink">
<g id="graph0" class="graph" transform="scale(1 1) rotate(0) translate(4 228.7)">
<title>G</title>
<polygon fill="white" stroke="none" points="-4,4 -4,-228.7 721,-228.7 721,4 -4,4"/>
<!-- agreeableness -->
<g id="node1" class="node">
<title>agreeableness</title>
<ellipse fill="#cae6df" stroke="black" cx="63" cy="-162.6" rx="62.1" ry="62.1"/>
<text text-anchor="middle" x="63" y="-157.55" font-family="Times,serif" font-size="14.00">agreeableness</text>
</g>
<!-- TIPI2 -->
<g id="node8" class="node">
<title>TIPI2</title>
<polygon fill="none" stroke="black" points="54,-36 0,-36 0,0 54,0 54,-36"/>
<text text-anchor="middle" x="27" y="-12.95" font-family="Times,serif" font-size="14.00">TIPI2</text>
</g>
<!-- agreeableness&#45;&gt;TIPI2 -->
<g id="edge3" class="edge">
<title>agreeableness&#45;&gt;TIPI2</title>
<path fill="none" stroke="black" d="M47.94,-101.95C43.18,-83.1 38.14,-63.13 34.2,-47.51"/>
<polygon fill="black" stroke="black" points="37.63,-46.81 31.79,-37.97 30.84,-48.52 37.63,-46.81"/>
<text text-anchor="middle" x="56.5" y="-63.98" font-family="Times,serif" font-size="12.00">0.274</text>
</g>
<!-- TIPI7 -->
<g id="node13" class="node">
<title>TIPI7</title>
<polygon fill="none" stroke="black" points="126,-36 72,-36 72,0 126,0 126,-36"/>
<text text-anchor="middle" x="99" y="-12.95" font-family="Times,serif" font-size="14.00">TIPI7</text>
</g>
<!-- agreeableness&#45;&gt;TIPI7 -->
<g id="edge4" class="edge">
<title>agreeableness&#45;&gt;TIPI7</title>
<path fill="none" stroke="black" d="M78.06,-101.95C82.82,-83.1 87.86,-63.13 91.8,-47.51"/>
<polygon fill="black" stroke="black" points="95.16,-48.52 94.21,-37.97 88.37,-46.81 95.16,-48.52"/>
<text text-anchor="middle" x="115.5" y="-71.1" font-family="Times,serif" font-size="12.00">&#45;1.000</text>
<text text-anchor="middle" x="115.5" y="-56.85" font-family="Times,serif" font-size="12.00">p&#45;val: 0.00</text>
</g>
<!-- conscientious -->
<g id="node2" class="node">
<title>conscientious</title>
<ellipse fill="#cae6df" stroke="black" cx="244" cy="-162.6" rx="61.08" ry="61.08"/>
<text text-anchor="middle" x="244" y="-157.55" font-family="Times,serif" font-size="14.00">conscientious</text>
</g>
<!-- TIPI3 -->
<g id="node9" class="node">
<title>TIPI3</title>
<polygon fill="none" stroke="black" points="200,-36 146,-36 146,0 200,0 200,-36"/>
<text text-anchor="middle" x="173" y="-12.95" font-family="Times,serif" font-size="14.00">TIPI3</text>
</g>
<!-- conscientious&#45;&gt;TIPI3 -->
<g id="edge5" class="edge">
<title>conscientious&#45;&gt;TIPI3</title>
<path fill="none" stroke="black" d="M216.96,-107.28C206.57,-86.42 195.16,-63.51 186.57,-46.25"/>
<polygon fill="black" stroke="black" points="189.88,-45.05 182.29,-37.66 183.62,-48.17 189.88,-45.05"/>
<text text-anchor="middle" x="218.5" y="-63.98" font-family="Times,serif" font-size="12.00">0.928</text>
</g>
<!-- TIPI8 -->
<g id="node14" class="node">
<title>TIPI8</title>
<polygon fill="none" stroke="black" points="272,-36 218,-36 218,0 272,0 272,-36"/>
<text text-anchor="middle" x="245" y="-12.95" font-family="Times,serif" font-size="14.00">TIPI8</text>
</g>
<!-- conscientious&#45;&gt;TIPI8 -->
<g id="edge6" class="edge">
<title>conscientious&#45;&gt;TIPI8</title>
<path fill="none" stroke="black" d="M244.42,-101.12C244.55,-82.56 244.69,-62.99 244.8,-47.61"/>
<polygon fill="black" stroke="black" points="248.3,-47.81 244.87,-37.79 241.3,-47.76 248.3,-47.81"/>
<text text-anchor="middle" x="270.5" y="-71.1" font-family="Times,serif" font-size="12.00">&#45;0.451</text>
<text text-anchor="middle" x="270.5" y="-56.85" font-family="Times,serif" font-size="12.00">p&#45;val: 0.00</text>
</g>
<!-- neuroticism -->
<g id="node3" class="node">
<title>neuroticism</title>
<ellipse fill="#cae6df" stroke="black" cx="378" cy="-162.6" rx="54.93" ry="54.93"/>
<text text-anchor="middle" x="378" y="-157.55" font-family="Times,serif" font-size="14.00">neuroticism</text>
</g>
<!-- TIPI4 -->
<g id="node10" class="node">
<title>TIPI4</title>
<polygon fill="none" stroke="black" points="347,-36 293,-36 293,0 347,0 347,-36"/>
<text text-anchor="middle" x="320" y="-12.95" font-family="Times,serif" font-size="14.00">TIPI4</text>
</g>
<!-- neuroticism&#45;&gt;TIPI4 -->
<g id="edge7" class="edge">
<title>neuroticism&#45;&gt;TIPI4</title>
<path fill="none" stroke="black" d="M357.55,-111.32C348.75,-89.68 338.79,-65.19 331.34,-46.88"/>
<polygon fill="black" stroke="black" points="334.64,-45.7 327.63,-37.75 328.15,-48.33 334.64,-45.7"/>
<text text-anchor="middle" x="359.5" y="-63.98" font-family="Times,serif" font-size="12.00">0.578</text>
</g>
<!-- TIPI9 -->
<g id="node15" class="node">
<title>TIPI9</title>
<polygon fill="none" stroke="black" points="419,-36 365,-36 365,0 419,0 419,-36"/>
<text text-anchor="middle" x="392" y="-12.95" font-family="Times,serif" font-size="14.00">TIPI9</text>
</g>
<!-- neuroticism&#45;&gt;TIPI9 -->
<g id="edge8" class="edge">
<title>neuroticism&#45;&gt;TIPI9</title>
<path fill="none" stroke="black" d="M383.29,-107.69C385.3,-87.28 387.5,-64.85 389.19,-47.65"/>
<polygon fill="black" stroke="black" points="392.65,-48.21 390.14,-37.92 385.68,-47.53 392.65,-48.21"/>
<text text-anchor="middle" x="414.5" y="-71.1" font-family="Times,serif" font-size="12.00">&#45;0.972</text>
<text text-anchor="middle" x="414.5" y="-56.85" font-family="Times,serif" font-size="12.00">p&#45;val: 0.00</text>
</g>
<!-- openness -->
<g id="node4" class="node">
<title>openness</title>
<ellipse fill="#cae6df" stroke="black" cx="496" cy="-162.6" rx="44.7" ry="44.7"/>
<text text-anchor="middle" x="496" y="-157.55" font-family="Times,serif" font-size="14.00">openness</text>
</g>
<!-- TIPI10 -->
<g id="node7" class="node">
<title>TIPI10</title>
<polygon fill="none" stroke="black" points="494.12,-36 439.88,-36 439.88,0 494.12,0 494.12,-36"/>
<text text-anchor="middle" x="467" y="-12.95" font-family="Times,serif" font-size="14.00">TIPI10</text>
</g>
<!-- openness&#45;&gt;TIPI10 -->
<g id="edge10" class="edge">
<title>openness&#45;&gt;TIPI10</title>
<path fill="none" stroke="black" d="M478.88,-121.23C474.47,-109.01 470.32,-95.4 468,-82.5 465.99,-71.3 465.43,-58.82 465.49,-47.9"/>
<polygon fill="black" stroke="black" points="468.99,-47.99 465.73,-37.91 461.99,-47.82 468.99,-47.99"/>
<text text-anchor="middle" x="493.5" y="-71.1" font-family="Times,serif" font-size="12.00">&#45;0.213</text>
<text text-anchor="middle" x="493.5" y="-56.85" font-family="Times,serif" font-size="12.00">p&#45;val: 0.00</text>
</g>
<!-- TIPI5 -->
<g id="node11" class="node">
<title>TIPI5</title>
<polygon fill="none" stroke="black" points="568,-36 514,-36 514,0 568,0 568,-36"/>
<text text-anchor="middle" x="541" y="-12.95" font-family="Times,serif" font-size="14.00">TIPI5</text>
</g>
<!-- openness&#45;&gt;TIPI5 -->
<g id="edge9" class="edge">
<title>openness&#45;&gt;TIPI5</title>
<path fill="none" stroke="black" d="M509.26,-119.59C516.62,-96.27 525.57,-67.88 532.09,-47.22"/>
<polygon fill="black" stroke="black" points="535.4,-48.37 535.07,-37.78 528.73,-46.26 535.4,-48.37"/>
<text text-anchor="middle" x="542.5" y="-63.98" font-family="Times,serif" font-size="12.00">1.000</text>
</g>
<!-- extraversion -->
<g id="node5" class="node">
<title>extraversion</title>
<ellipse fill="#cae6df" stroke="black" cx="615" cy="-162.6" rx="56.47" ry="56.47"/>
<text text-anchor="middle" x="615" y="-157.55" font-family="Times,serif" font-size="14.00">extraversion</text>
</g>
<!-- TIPI1 -->
<g id="node6" class="node">
<title>TIPI1</title>
<polygon fill="none" stroke="black" points="640,-36 586,-36 586,0 640,0 640,-36"/>
<text text-anchor="middle" x="613" y="-12.95" font-family="Times,serif" font-size="14.00">TIPI1</text>
</g>
<!-- extraversion&#45;&gt;TIPI1 -->
<g id="edge1" class="edge">
<title>extraversion&#45;&gt;TIPI1</title>
<path fill="none" stroke="black" d="M614.22,-105.65C613.94,-85.68 613.63,-64.03 613.4,-47.36"/>
<polygon fill="black" stroke="black" points="616.9,-47.67 613.26,-37.72 609.9,-47.77 616.9,-47.67"/>
<text text-anchor="middle" x="627.5" y="-63.98" font-family="Times,serif" font-size="12.00">1.000</text>
</g>
<!-- TIPI6 -->
<g id="node12" class="node">
<title>TIPI6</title>
<polygon fill="none" stroke="black" points="712,-36 658,-36 658,0 712,0 712,-36"/>
<text text-anchor="middle" x="685" y="-12.95" font-family="Times,serif" font-size="14.00">TIPI6</text>
</g>
<!-- extraversion&#45;&gt;TIPI6 -->
<g id="edge2" class="edge">
<title>extraversion&#45;&gt;TIPI6</title>
<path fill="none" stroke="black" d="M639.68,-111.32C650.36,-89.57 662.44,-64.96 671.44,-46.62"/>
<polygon fill="black" stroke="black" points="674.55,-48.23 675.82,-37.71 668.27,-45.14 674.55,-48.23"/>
<text text-anchor="middle" x="691.5" y="-71.1" font-family="Times,serif" font-size="12.00">&#45;0.565</text>
<text text-anchor="middle" x="691.5" y="-56.85" font-family="Times,serif" font-size="12.00">p&#45;val: 0.00</text>
</g>
</g>
</svg>